#!OML:ASF F:\twosubjects\two\wednesday\Session 1\rory1.ASF
:FULLY-SPECIFIED
:DEGREES
148
root -1.44657 18.6008 2.36568 -167.746 6.60412 -175.77
lowerback 2.8076 -0.809243 1.4489
upperback 2.54967 -0.911108 2.53893
thorax 1.05855 -0.389426 1.80968
lowerneck -9.77542 -4.18732 -4.28216
upperneck 11.5942 -5.24251 2.50762
head 5.27522 -2.54644 1.08747
rclavicle 1.93815e-015 -3.56818e-014
rhumerus -57.4211 -43.8673 -40.4704
rradius 28.1788
rwrist -39.1908
rhand -39.3046 34.6417
rfingers 7.12502
rthumb -12.2974 5.02329
lclavicle 1.93815e-015 -3.56818e-014
lhumerus -44.0227 21.6392 70.1095
lradius 22.112
lwrist -8.40273
lhand -17.4696 12.9193
lfingers 7.12502
lthumb 8.7822 42.7165
rfemur -1.71227 10.0972 26.4446
rtibia 17.5545
rfoot -9.6201 1.53591
rtoes 1.89164
lfemur -32.5427 -8.54721 -4.8892
ltibia 11.6934
lfoot -18.2113 21.3109
ltoes -6.24396
149
root -1.46585 18.5993 2.19231 -167.629 6.51093 -175.597
lowerback 2.63318 -0.762418 1.57619
upperback 2.59044 -0.853043 2.50427
thorax 1.19433 -0.357858 1.69944
lowerneck -9.94557 -4.11293 -4.22106
upperneck 11.3253 -5.14083 2.42457
head 5.21267 -2.50316 1.05834
rclavicle 7.55382e-015 3.54831e-014
rhumerus -57.319 -44.0269 -40.4132
rradius 28.223
rwrist -39.464
rhand -39.6153 34.6943
rfingers 7.12502
rthumb -12.5969 5.09411
lclavicle 7.55382e-015 3.54831e-014
lhumerus -43.731 21.6558 69.955
lradius 21.9255
lwrist -9.3514
lhand -17.0753 12.5598
lfingers 7.12502
lthumb 9.16264 42.3408
rfemur -0.861017 9.96283 26.5706
rtibia 16.7759
rfoot -8.7014 1.70399
rtoes -0.364586
lfemur -32.4007 -8.5404 -4.7934
ltibia 9.85462
lfoot -17.8392 20.1654
ltoes 3.4913
150
root -1.48954 18.5848 2.01588 -167.468 6.45293 -175.35
lowerback 2.49882 -0.770791 1.7995
upperback 2.65999 -0.861734 2.5355
thorax 1.33834 -0.355857 1.60484
lowerneck -10.5989 -4.0275 -4.36924
upperneck 11.2888 -4.9973 2.49642
head 5.31178 -2.43439 1.10321
rclavicle -8.22472e-015 1.09332e-015
rhumerus -56.7189 -43.9873 -40.8615
rradius 28.3925
rwrist -40.0139
rhand -40.2751 34.9598
rfingers 7.12502
rthumb -13.2329 5.3998
lclavicle -8.22472e-015 1.09332e-015
lhumerus -43.3284 21.8362 69.8655
lradius 21.7303
lwrist -10.0543
lhand -16.322 11.8679
lfingers 7.12502
lthumb 9.88949 41.6156
rfemur -0.0281161 10.1529 26.7617
rtibia 15.9263
rfoot -9.0315 1.70181
rtoes -0.417478
lfemur -32.3997 -8.47116 -4.6234
ltibia 8.51236
lfoot -17.5442 19.0428
ltoes 1.46202
151
root -1.51604 18.5689 1.83256 -167.487 6.46777 -175.237
lowerback 2.5541 -0.752806 1.9228
upperback 2.65264 -0.833999 2.48848
thorax 1.29686 -0.339938 1.4877
lowerneck -10.8633 -3.90239 -4.43702
upperneck 11.1839 -4.82225 2.57364
head 5.32084 -2.3471 1.14817
rclavicle 2.10463e-014 -2.3556e-014
rhumerus -56.1186 -43.5174 -41.61
rradius 28.6785
rwrist -40.6928
rhand -41.0628 35.345
rfingers 7.12502
rthumb -13.9922 5.83593
lclavicle 2.10463e-014 -2.3556e-014
lhumerus -43.0489 21.875 69.6353
lradius 21.6137
lwrist -10.1001
lhand -16.4836 13.1325
lfingers 7.12502
lthumb 9.73361 42.8876
rfemur 1.15142 10.4516 26.8312
rtibia 14.9422
rfoot -8.39754 1.6498
rtoes -2.16568
lfemur -32.5061 -8.35549 -4.54791
ltibia 7.98322
lfoot -17.4746 18.0308
ltoes -8.89938
152
root -1.54114 18.5508 1.64547 -167.758 6.47523 -175.244
lowerback 2.78107 -0.658418 1.91225
upperback 2.63163 -0.702494 2.36169
thorax 1.145 -0.275564 1.36354
lowerneck -10.5455 -3.80995 -4.36909
upperneck 10.7303 -4.7226 2.58376
head 5.1213 -2.29985 1.15717
rclavicle 4.24157e-014 -1.49089e-015
rhumerus -56.2434 -43.3666 -41.5789
rradius 29.0166
rwrist -41.2962
rhand -40.8804 36.0442
rfingers 7.12502
rthumb -13.8164 6.52304
lclavicle 4.24157e-014 -1.49089e-015
lhumerus -42.7337 21.682 69.3817
lradius 21.4434
lwrist -9.79629
lhand -17.0358 14.3077
lfingers 7.12502
lthumb 9.20076 44.087
rfemur 2.53319 10.3694 26.7872
rtibia 14.1073
rfoot -7.87949 1.86188
rtoes -3.55171
lfemur -32.4157 -8.3954 -4.715
ltibia 7.76625
lfoot -17.4221 17.5569
ltoes -8.78949
153
root -1.56609 18.5254 1.46157 -168.065 6.47118 -175.258
lowerback 2.95611 -0.56465 1.83597
upperback 2.68526 -0.572222 2.28733
thorax 1.10075 -0.21037 1.32884
lowerneck -10.3309 -3.75692 -4.35509
upperneck 10.2519 -4.65451 2.51973
head 4.93267 -2.27473 1.14731
rclavicle -3.28492e-014 2.28602e-014
rhumerus -56.5599 -43.6364 -41.0067
rradius 29.2809
rwrist -41.4885
rhand -40.6641 36.4369
rfingers 7.12502
rthumb -13.6079 6.90166
lclavicle -3.28492e-014 2.28602e-014
lhumerus -42.3378 21.3142 69.438
lradius 21.4933
lwrist -9.40673
lhand -16.8458 14.4317
lfingers 7.12502
lthumb 9.38415 44.2028
rfemur 3.75892 10.1142 26.722
rtibia 13.4854
rfoot -7.59557 2.19259
rtoes -5.21408
lfemur -32.2512 -8.48443 -4.93838
ltibia 7.73376
lfoot -17.5544 17.3871
ltoes -10.5418
154
root -1.5886 18.5044 1.28066 -168.201 6.3744 -175.107
lowerback 3.00674 -0.527459 1.88668
upperback 2.72264 -0.515647 2.3263
thorax 1.1102 -0.179175 1.33974
lowerneck -10.3116 -3.66783 -4.36107
upperneck 9.85253 -4.50965 2.30675
head 4.79598 -2.22003 1.09639
rclavicle 7.59109e-015 -2.73329e-014
rhumerus -56.4788 -43.908 -40.6474
rradius 29.4023
rwrist -41.5064
rhand -41.9244 36.4386
rfingers 7.12502
rthumb -14.8223 6.98868
lclavicle 7.59109e-015 -2.73329e-014
lhumerus -41.9791 21.2534 69.4774
lradius 21.5875
lwrist -9.46525
lhand -16.1721 14.6331
lfingers 7.12502
lthumb 10.0342 44.3739
rfemur 4.77172 10.2528 26.9083
rtibia 12.9161
rfoot -7.11008 2.236
rtoes -6.12765
lfemur -32.4052 -8.61585 -5.00417
ltibia 8.14118
lfoot -17.4757 17.5146
ltoes 5.42772
155
root -1.61232 18.4835 1.09595 -168.317 6.2538 -174.881
lowerback 3.0548 -0.484667 2.03914
upperback 2.76763 -0.448883 2.34906
thorax 1.12789 -0.140678 1.27673
lowerneck -10.2182 -3.56809 -4.264
upperneck 9.28961 -4.36271 2.03145
head 4.59329 -2.16378 1.01232
rclavicle -3.07619e-014 -1.39398e-014
rhumerus -56.2629 -44.1834 -40.4758
rradius 29.5194
rwrist -41.9186
rhand -42.7488 36.773
rfingers 7.12502
rthumb -15.6165 7.38333
lclavicle -3.07619e-014 -1.39398e-014
lhumerus -41.4716 21.6255 69.2429
lradius 21.3283
lwrist -10.0494
lhand -16.0582 14.0649
lfingers 7.12502
lthumb 10.144 43.8004
rfemur 5.66112 10.6311 27.2065
rtibia 12.608
rfoot -6.46446 2.1124
rtoes -3.7186
lfemur -32.6259 -8.68573 -4.88314
ltibia 8.79413
lfoot -16.8635 17.984
ltoes -2.91327
156
root -1.64068 18.4579 0.904014 -168.529 6.20232 -174.814
lowerback 3.1309 -0.341446 2.09678
upperback 2.83464 -0.254036 2.23685
thorax 1.15186 -0.0404874 1.12555
lowerneck -10.0222 -3.52502 -3.90618
upperneck 8.56028 -4.33581 1.75347
head 4.32122 -2.15708 0.880407
rclavicle 1.02623e-014 2.21598e-014
rhumerus -56.4809 -44.5925 -40.0767
rradius 29.7824
rwrist -42.2744
rhand -41.9438 36.5735
rfingers 7.12502
rthumb -14.841 7.12503
lclavicle 1.02623e-014 2.21598e-014
lhumerus -40.8024 21.3995 69.2685
lradius 21.1732
lwrist -9.98557
lhand -16.5452 12.8498
lfingers 7.12502
lthumb 9.67417 42.6076
rfemur 6.51541 10.5962 27.2396
rtibia 12.6388
rfoot -5.9547 2.29953
rtoes -2.42079
lfemur -32.6514 -8.77006 -4.99027
ltibia 9.55761
lfoot -16.146 18.4126
ltoes -11.4174
157
root -1.66777 18.4358 0.710469 -168.659 6.12794 -174.763
lowerback 3.16443 -0.131577 2.17033
upperback 2.76893 0.0218148 2.06017
thorax 1.0644 0.0953997 0.896812
lowerneck -9.85095 -3.51736 -3.39892
upperneck 8.21855 -4.38513 1.56313
head 4.17371 -2.17732 0.743469
rclavicle -4.9075e-015 1.2424e-016
rhumerus -56.9521 -44.8411 -39.7523
rradius 30.1722
rwrist -42.402
rhand -42.2619 36.0273
rfingers 7.12502
rthumb -15.1475 6.60169
lclavicle -4.9075e-015 1.2424e-016
lhumerus -40.1506 20.7189 69.4245
lradius 21.1395
lwrist -9.65306
lhand -16.8186 12.2543
lfingers 7.12502
lthumb 9.41042 42.0242
rfemur 7.21675 10.255 27.183
rtibia 12.7383
rfoot -5.53132 2.80776
rtoes -4.11703
lfemur -32.8284 -8.86656 -5.11161
ltibia 10.627
lfoot -15.6081 18.5689
ltoes -16.2919
158
root -1.69429 18.4089 0.512796 -168.66 5.94189 -174.664
lowerback 2.98303 -0.140521 2.22226
upperback 2.76227 0.00203755 2.05326
thorax 1.15906 0.085949 0.861213
lowerneck -10.4735 -3.39647 -3.48334
upperneck 8.61709 -4.19527 1.5931
head 4.39629 -2.08216 0.76543
rclavicle 3.27995e-015 -1.18774e-014
rhumerus -56.2446 -44.5246 -40.4465
rradius 30.6071
rwrist -43.1115
rhand -43.24 35.4261
rfingers 7.12502
rthumb -16.0895 6.07404
lclavicle 3.27995e-015 -1.18774e-014
lhumerus -39.5469 20.8231 69.5476
lradius 21.1842
lwrist -9.53671
lhand -17.0796 13.9184
lfingers 7.12502
lthumb 9.15855 43.6995
rfemur 7.70173 9.99335 27.2108
rtibia 12.9332
rfoot -5.11101 3.17587
rtoes -4.96363
lfemur -33.0114 -7.46574 -6.18052
ltibia 11.8489
lfoot -14.3408 16.7651
ltoes -17.1922
